{
    "asset" : {
        "generator" : "Khronos glTF Blender I/O v3.2.40",
        "version" : "2.0"
    },
    "scene" : 0,
    "scenes" : [
        {
            "name" : "Scene",
            "nodes" : [
                0
            ]
        }
    ],
    "nodes" : [
        {
            "mesh" : 0,
            "name" : "Sphere",
            "scale" : [
                3.763449192047119,
                0.7212880849838257,
                3.763449192047119
            ],
            "translation" : [
                0,
                0.04934367164969444,
                0
            ]
        }
    ],
    "materials" : [
        {
            "doubleSided" : true,
            "name" : "Material.001",
            "pbrMetallicRoughness" : {
                "baseColorFactor" : [
                    0.003190903924405575,
                    0.03433981165289879,
                    0.08543834090232849,
                    1
                ],
                "metallicFactor" : 0,
                "roughnessFactor" : 0.5
            }
        },
        {
            "doubleSided" : true,
            "emissiveFactor" : [
                1,
                1,
                1
            ],
            "name" : "Material.004",
            "pbrMetallicRoughness" : {
                "baseColorFactor" : [
                    0,
                    0,
                    0,
                    1
                ]
            }
        },
        {
            "doubleSided" : true,
            "emissiveFactor" : [
                0,
                1,
                0.03528391569852829
            ],
            "name" : "Material.002",
            "pbrMetallicRoughness" : {
                "baseColorFactor" : [
                    0,
                    0,
                    0,
                    1
                ]
            }
        },
        {
            "doubleSided" : true,
            "emissiveFactor" : [
                0,
                1,
                0.09691179729998112
            ],
            "name" : "Material",
            "pbrMetallicRoughness" : {
                "baseColorFactor" : [
                    0,
                    0,
                    0,
                    1
                ]
            }
        }
    ],
    "meshes" : [
        {
            "name" : "Sphere",
            "primitives" : [
                {
                    "attributes" : {
                        "POSITION" : 0,
                        "NORMAL" : 1,
                        "TEXCOORD_0" : 2
                    },
                    "indices" : 3,
                    "material" : 0
                },
                {
                    "attributes" : {
                        "POSITION" : 4,
                        "NORMAL" : 5,
                        "TEXCOORD_0" : 6
                    },
                    "indices" : 7,
                    "material" : 1
                },
                {
                    "attributes" : {
                        "POSITION" : 8,
                        "NORMAL" : 9,
                        "TEXCOORD_0" : 10
                    },
                    "indices" : 11,
                    "material" : 2
                },
                {
                    "attributes" : {
                        "POSITION" : 12,
                        "NORMAL" : 13,
                        "TEXCOORD_0" : 14
                    },
                    "indices" : 15,
                    "material" : 3
                }
            ]
        }
    ],
    "accessors" : [
        {
            "bufferView" : 0,
            "componentType" : 5126,
            "count" : 2368,
            "max" : [
                0.9999997019767761,
                1,
                0.9999994039535522
            ],
            "min" : [
                -0.9999990463256836,
                -1,
                -0.9999987483024597
            ],
            "type" : "VEC3"
        },
        {
            "bufferView" : 1,
            "componentType" : 5126,
            "count" : 2368,
            "type" : "VEC3"
        },
        {
            "bufferView" : 2,
            "componentType" : 5126,
            "count" : 2368,
            "type" : "VEC2"
        },
        {
            "bufferView" : 3,
            "componentType" : 5123,
            "count" : 3456,
            "type" : "SCALAR"
        },
        {
            "bufferView" : 4,
            "componentType" : 5126,
            "count" : 687,
            "max" : [
                0.43631747364997864,
                2.8541574478149414,
                0.436317503452301
            ],
            "min" : [
                -0.4363173246383667,
                -1.4608378410339355,
                -0.43631744384765625
            ],
            "type" : "VEC3"
        },
        {
            "bufferView" : 5,
            "componentType" : 5126,
            "count" : 687,
            "type" : "VEC3"
        },
        {
            "bufferView" : 6,
            "componentType" : 5126,
            "count" : 687,
            "type" : "VEC2"
        },
        {
            "bufferView" : 7,
            "componentType" : 5123,
            "count" : 3072,
            "type" : "SCALAR"
        },
        {
            "bufferView" : 8,
            "componentType" : 5126,
            "count" : 15872,
            "max" : [
                0.8464083075523376,
                -0.26505452394485474,
                0.8629685044288635
            ],
            "min" : [
                -0.8436519503593445,
                -0.759067952632904,
                -0.8537095785140991
            ],
            "type" : "VEC3"
        },
        {
            "bufferView" : 9,
            "componentType" : 5126,
            "count" : 15872,
            "type" : "VEC3"
        },
        {
            "bufferView" : 10,
            "componentType" : 5126,
            "count" : 15872,
            "type" : "VEC2"
        },
        {
            "bufferView" : 11,
            "componentType" : 5123,
            "count" : 23040,
            "type" : "SCALAR"
        },
        {
            "bufferView" : 12,
            "componentType" : 5126,
            "count" : 2304,
            "max" : [
                0.3321421146392822,
                -0.5857672095298767,
                0.3321421146392822
            ],
            "min" : [
                -0.3321421146392822,
                -1.2789714336395264,
                -0.3321421146392822
            ],
            "type" : "VEC3"
        },
        {
            "bufferView" : 13,
            "componentType" : 5126,
            "count" : 2304,
            "type" : "VEC3"
        },
        {
            "bufferView" : 14,
            "componentType" : 5126,
            "count" : 2304,
            "type" : "VEC2"
        },
        {
            "bufferView" : 15,
            "componentType" : 5123,
            "count" : 3456,
            "type" : "SCALAR"
        }
    ],
    "bufferViews" : [
        {
            "buffer" : 0,
            "byteLength" : 28416,
            "byteOffset" : 0
        },
        {
            "buffer" : 0,
            "byteLength" : 28416,
            "byteOffset" : 28416
        },
        {
            "buffer" : 0,
            "byteLength" : 18944,
            "byteOffset" : 56832
        },
        {
            "buffer" : 0,
            "byteLength" : 6912,
            "byteOffset" : 75776
        },
        {
            "buffer" : 0,
            "byteLength" : 8244,
            "byteOffset" : 82688
        },
        {
            "buffer" : 0,
            "byteLength" : 8244,
            "byteOffset" : 90932
        },
        {
            "buffer" : 0,
            "byteLength" : 5496,
            "byteOffset" : 99176
        },
        {
            "buffer" : 0,
            "byteLength" : 6144,
            "byteOffset" : 104672
        },
        {
            "buffer" : 0,
            "byteLength" : 190464,
            "byteOffset" : 110816
        },
        {
            "buffer" : 0,
            "byteLength" : 190464,
            "byteOffset" : 301280
        },
        {
            "buffer" : 0,
            "byteLength" : 126976,
            "byteOffset" : 491744
        },
        {
            "buffer" : 0,
            "byteLength" : 46080,
            "byteOffset" : 618720
        },
        {
            "buffer" : 0,
            "byteLength" : 27648,
            "byteOffset" : 664800
        },
        {
            "buffer" : 0,
            "byteLength" : 27648,
            "byteOffset" : 692448
        },
        {
            "buffer" : 0,
            "byteLength" : 18432,
            "byteOffset" : 720096
        },
        {
            "buffer" : 0,
            "byteLength" : 6912,
            "byteOffset" : 738528
        }
    ],
    "buffers" : [
        {
            "byteLength" : 745440,
            "uri" : "ufo7.bin"
        }
    ]
}
