{
    "asset" : {
        "generator" : "Khronos glTF Blender I/O v3.2.40",
        "version" : "2.0"
    },
    "scene" : 0,
    "scenes" : [
        {
            "name" : "Scene",
            "nodes" : [
                0,
                1,
                2,
                3,
                4,
                5,
                6,
                7,
                8,
                9,
                10,
                11
            ]
        }
    ],
    "nodes" : [
        {
            "mesh" : 0,
            "name" : "Sphere",
            "scale" : [
                3.763449192047119,
                0.7212880849838257,
                3.763449192047119
            ],
            "translation" : [
                0,
                0.04934367164969444,
                0
            ]
        },
        {
            "mesh" : 1,
            "name" : "Sphere.001",
            "scale" : [
                1.5561773777008057,
                1.5561773777008057,
                1.5561773777008057
            ],
            "translation" : [
                0,
                0.5518360733985901,
                0
            ]
        },
        {
            "mesh" : 2,
            "name" : "Sphere.003",
            "scale" : [
                0.17816299200057983,
                0.17816299200057983,
                0.17816299200057983
            ],
            "translation" : [
                -0.014173705130815506,
                -0.3199999928474426,
                -3.0347299575805664
            ]
        },
        {
            "mesh" : 3,
            "name" : "Sphere.002",
            "scale" : [
                0.17816299200057983,
                0.17816299200057983,
                0.17816299200057983
            ],
            "translation" : [
                -2.9968786239624023,
                -0.3199999928474426,
                -0.020892620086669922
            ]
        },
        {
            "mesh" : 4,
            "name" : "Sphere.004",
            "scale" : [
                0.17816299200057983,
                0.17816299200057983,
                0.17816299200057983
            ],
            "translation" : [
                -0.014173705130815506,
                -0.3199999928474426,
                3.069575309753418
            ]
        },
        {
            "mesh" : 5,
            "name" : "Sphere.005",
            "scale" : [
                0.17816299200057983,
                0.17816299200057983,
                0.17816299200057983
            ],
            "translation" : [
                3.007251739501953,
                -0.3199999928474426,
                -0.020892620086669922
            ]
        },
        {
            "mesh" : 6,
            "name" : "Sphere.006",
            "scale" : [
                0.17816299200057983,
                0.17816299200057983,
                0.17816299200057983
            ],
            "translation" : [
                -2.1272757053375244,
                -0.3199999928474426,
                -2.1170196533203125
            ]
        },
        {
            "mesh" : 7,
            "name" : "Sphere.007",
            "scale" : [
                0.17816299200057983,
                0.17816299200057983,
                0.17816299200057983
            ],
            "translation" : [
                2.0634751319885254,
                -0.3199999928474426,
                -2.1499240398406982
            ]
        },
        {
            "mesh" : 8,
            "name" : "Sphere.008",
            "scale" : [
                0.17816299200057983,
                0.17816299200057983,
                0.17816299200057983
            ],
            "translation" : [
                -2.264434814453125,
                -0.3199999928474426,
                2.091341972351074
            ]
        },
        {
            "mesh" : 9,
            "name" : "Sphere.009",
            "scale" : [
                0.17816299200057983,
                0.17816299200057983,
                0.17816299200057983
            ],
            "translation" : [
                2.3051950931549072,
                -0.3199999928474426,
                2.110687732696533
            ]
        },
        {
            "mesh" : 10,
            "name" : "Torus",
            "translation" : [
                0,
                -0.6231632828712463,
                0
            ]
        },
        {
            "name" : "Empty",
            "rotation" : [
                0.5731023550033569,
                -0.4166730046272278,
                0.4225306212902069,
                0.5651593804359436
            ],
            "translation" : [
                -1.2694783210754395,
                2.8105156421661377,
                -3.9684998989105225
            ]
        }
    ],
    "materials" : [
        {
            "doubleSided" : true,
            "name" : "Material.001",
            "pbrMetallicRoughness" : {
                "baseColorFactor" : [
                    0.003190903924405575,
                    0.03433981165289879,
                    0.08543834090232849,
                    1
                ],
                "metallicFactor" : 0,
                "roughnessFactor" : 0.5
            }
        },
        {
            "doubleSided" : true,
            "emissiveFactor" : [
                1,
                1,
                1
            ],
            "name" : "Material.004",
            "pbrMetallicRoughness" : {
                "baseColorFactor" : [
                    0,
                    0,
                    0,
                    1
                ]
            }
        },
        {
            "doubleSided" : true,
            "emissiveFactor" : [
                0,
                1,
                0.03528391569852829
            ],
            "name" : "Material.002",
            "pbrMetallicRoughness" : {
                "baseColorFactor" : [
                    0,
                    0,
                    0,
                    1
                ]
            }
        },
        {
            "doubleSided" : true,
            "emissiveFactor" : [
                0,
                1,
                0.09691179729998112
            ],
            "name" : "Material",
            "pbrMetallicRoughness" : {
                "baseColorFactor" : [
                    0,
                    0,
                    0,
                    1
                ]
            }
        }
    ],
    "meshes" : [
        {
            "name" : "Sphere",
            "primitives" : [
                {
                    "attributes" : {
                        "POSITION" : 0,
                        "NORMAL" : 1,
                        "TEXCOORD_0" : 2
                    },
                    "indices" : 3,
                    "material" : 0
                },
                {
                    "attributes" : {
                        "POSITION" : 4,
                        "NORMAL" : 5,
                        "TEXCOORD_0" : 6
                    },
                    "indices" : 7,
                    "material" : 1
                }
            ]
        },
        {
            "name" : "Sphere.001",
            "primitives" : [
                {
                    "attributes" : {
                        "POSITION" : 8,
                        "NORMAL" : 9,
                        "TEXCOORD_0" : 10
                    },
                    "indices" : 11,
                    "material" : 1
                }
            ]
        },
        {
            "name" : "Sphere.004",
            "primitives" : [
                {
                    "attributes" : {
                        "POSITION" : 12,
                        "NORMAL" : 13,
                        "TEXCOORD_0" : 14
                    },
                    "indices" : 15,
                    "material" : 2
                }
            ]
        },
        {
            "name" : "Sphere.011",
            "primitives" : [
                {
                    "attributes" : {
                        "POSITION" : 16,
                        "NORMAL" : 17,
                        "TEXCOORD_0" : 18
                    },
                    "indices" : 15,
                    "material" : 2
                }
            ]
        },
        {
            "name" : "Sphere.012",
            "primitives" : [
                {
                    "attributes" : {
                        "POSITION" : 19,
                        "NORMAL" : 20,
                        "TEXCOORD_0" : 21
                    },
                    "indices" : 15,
                    "material" : 2
                }
            ]
        },
        {
            "name" : "Sphere.013",
            "primitives" : [
                {
                    "attributes" : {
                        "POSITION" : 22,
                        "NORMAL" : 23,
                        "TEXCOORD_0" : 24
                    },
                    "indices" : 15,
                    "material" : 2
                }
            ]
        },
        {
            "name" : "Sphere.014",
            "primitives" : [
                {
                    "attributes" : {
                        "POSITION" : 25,
                        "NORMAL" : 26,
                        "TEXCOORD_0" : 27
                    },
                    "indices" : 15,
                    "material" : 2
                }
            ]
        },
        {
            "name" : "Sphere.016",
            "primitives" : [
                {
                    "attributes" : {
                        "POSITION" : 28,
                        "NORMAL" : 29,
                        "TEXCOORD_0" : 30
                    },
                    "indices" : 15,
                    "material" : 2
                }
            ]
        },
        {
            "name" : "Sphere.017",
            "primitives" : [
                {
                    "attributes" : {
                        "POSITION" : 31,
                        "NORMAL" : 32,
                        "TEXCOORD_0" : 33
                    },
                    "indices" : 15,
                    "material" : 2
                }
            ]
        },
        {
            "name" : "Sphere.018",
            "primitives" : [
                {
                    "attributes" : {
                        "POSITION" : 34,
                        "NORMAL" : 35,
                        "TEXCOORD_0" : 36
                    },
                    "indices" : 15,
                    "material" : 2
                }
            ]
        },
        {
            "name" : "Torus",
            "primitives" : [
                {
                    "attributes" : {
                        "POSITION" : 37,
                        "NORMAL" : 38,
                        "TEXCOORD_0" : 39
                    },
                    "indices" : 40,
                    "material" : 3
                }
            ]
        }
    ],
    "accessors" : [
        {
            "bufferView" : 0,
            "componentType" : 5126,
            "count" : 2368,
            "max" : [
                0.9999997019767761,
                1,
                0.9999994039535522
            ],
            "min" : [
                -0.9999990463256836,
                -1,
                -0.9999987483024597
            ],
            "type" : "VEC3"
        },
        {
            "bufferView" : 1,
            "componentType" : 5126,
            "count" : 2368,
            "type" : "VEC3"
        },
        {
            "bufferView" : 2,
            "componentType" : 5126,
            "count" : 2368,
            "type" : "VEC2"
        },
        {
            "bufferView" : 3,
            "componentType" : 5123,
            "count" : 3456,
            "type" : "SCALAR"
        },
        {
            "bufferView" : 4,
            "componentType" : 5126,
            "count" : 128,
            "max" : [
                0.43631747364997864,
                0.8652300238609314,
                0.436317503452301
            ],
            "min" : [
                -0.4363173246383667,
                0.8011998534202576,
                -0.43631744384765625
            ],
            "type" : "VEC3"
        },
        {
            "bufferView" : 5,
            "componentType" : 5126,
            "count" : 128,
            "type" : "VEC3"
        },
        {
            "bufferView" : 6,
            "componentType" : 5126,
            "count" : 128,
            "type" : "VEC2"
        },
        {
            "bufferView" : 7,
            "componentType" : 5123,
            "count" : 192,
            "type" : "SCALAR"
        },
        {
            "bufferView" : 8,
            "componentType" : 5126,
            "count" : 559,
            "max" : [
                0.9999997019767761,
                1,
                0.9999994039535522
            ],
            "min" : [
                -0.9999990463256836,
                -1,
                -0.9999987483024597
            ],
            "type" : "VEC3"
        },
        {
            "bufferView" : 9,
            "componentType" : 5126,
            "count" : 559,
            "type" : "VEC3"
        },
        {
            "bufferView" : 10,
            "componentType" : 5126,
            "count" : 559,
            "type" : "VEC2"
        },
        {
            "bufferView" : 11,
            "componentType" : 5123,
            "count" : 2880,
            "type" : "SCALAR"
        },
        {
            "bufferView" : 12,
            "componentType" : 5126,
            "count" : 1984,
            "max" : [
                0.9999997019767761,
                1,
                0.9999994039535522
            ],
            "min" : [
                -0.9999990463256836,
                -1,
                -0.9999987483024597
            ],
            "type" : "VEC3"
        },
        {
            "bufferView" : 13,
            "componentType" : 5126,
            "count" : 1984,
            "type" : "VEC3"
        },
        {
            "bufferView" : 14,
            "componentType" : 5126,
            "count" : 1984,
            "type" : "VEC2"
        },
        {
            "bufferView" : 15,
            "componentType" : 5123,
            "count" : 2880,
            "type" : "SCALAR"
        },
        {
            "bufferView" : 16,
            "componentType" : 5126,
            "count" : 1984,
            "max" : [
                0.9999997019767761,
                1,
                0.9999994039535522
            ],
            "min" : [
                -0.9999990463256836,
                -1,
                -0.9999987483024597
            ],
            "type" : "VEC3"
        },
        {
            "bufferView" : 17,
            "componentType" : 5126,
            "count" : 1984,
            "type" : "VEC3"
        },
        {
            "bufferView" : 18,
            "componentType" : 5126,
            "count" : 1984,
            "type" : "VEC2"
        },
        {
            "bufferView" : 19,
            "componentType" : 5126,
            "count" : 1984,
            "max" : [
                0.9999997019767761,
                1,
                0.9999994039535522
            ],
            "min" : [
                -0.9999990463256836,
                -1,
                -0.9999987483024597
            ],
            "type" : "VEC3"
        },
        {
            "bufferView" : 20,
            "componentType" : 5126,
            "count" : 1984,
            "type" : "VEC3"
        },
        {
            "bufferView" : 21,
            "componentType" : 5126,
            "count" : 1984,
            "type" : "VEC2"
        },
        {
            "bufferView" : 22,
            "componentType" : 5126,
            "count" : 1984,
            "max" : [
                0.9999997019767761,
                1,
                0.9999994039535522
            ],
            "min" : [
                -0.9999990463256836,
                -1,
                -0.9999987483024597
            ],
            "type" : "VEC3"
        },
        {
            "bufferView" : 23,
            "componentType" : 5126,
            "count" : 1984,
            "type" : "VEC3"
        },
        {
            "bufferView" : 24,
            "componentType" : 5126,
            "count" : 1984,
            "type" : "VEC2"
        },
        {
            "bufferView" : 25,
            "componentType" : 5126,
            "count" : 1984,
            "max" : [
                0.9999997019767761,
                1,
                0.9999994039535522
            ],
            "min" : [
                -0.9999990463256836,
                -1,
                -0.9999987483024597
            ],
            "type" : "VEC3"
        },
        {
            "bufferView" : 26,
            "componentType" : 5126,
            "count" : 1984,
            "type" : "VEC3"
        },
        {
            "bufferView" : 27,
            "componentType" : 5126,
            "count" : 1984,
            "type" : "VEC2"
        },
        {
            "bufferView" : 28,
            "componentType" : 5126,
            "count" : 1984,
            "max" : [
                0.9999997019767761,
                1,
                0.9999994039535522
            ],
            "min" : [
                -0.9999990463256836,
                -1,
                -0.9999987483024597
            ],
            "type" : "VEC3"
        },
        {
            "bufferView" : 29,
            "componentType" : 5126,
            "count" : 1984,
            "type" : "VEC3"
        },
        {
            "bufferView" : 30,
            "componentType" : 5126,
            "count" : 1984,
            "type" : "VEC2"
        },
        {
            "bufferView" : 31,
            "componentType" : 5126,
            "count" : 1984,
            "max" : [
                0.9999997019767761,
                1,
                0.9999994039535522
            ],
            "min" : [
                -0.9999990463256836,
                -1,
                -0.9999987483024597
            ],
            "type" : "VEC3"
        },
        {
            "bufferView" : 32,
            "componentType" : 5126,
            "count" : 1984,
            "type" : "VEC3"
        },
        {
            "bufferView" : 33,
            "componentType" : 5126,
            "count" : 1984,
            "type" : "VEC2"
        },
        {
            "bufferView" : 34,
            "componentType" : 5126,
            "count" : 1984,
            "max" : [
                0.9999997019767761,
                1,
                0.9999994039535522
            ],
            "min" : [
                -0.9999990463256836,
                -1,
                -0.9999987483024597
            ],
            "type" : "VEC3"
        },
        {
            "bufferView" : 35,
            "componentType" : 5126,
            "count" : 1984,
            "type" : "VEC3"
        },
        {
            "bufferView" : 36,
            "componentType" : 5126,
            "count" : 1984,
            "type" : "VEC2"
        },
        {
            "bufferView" : 37,
            "componentType" : 5126,
            "count" : 2304,
            "max" : [
                1.25,
                0.25,
                1.25
            ],
            "min" : [
                -1.25,
                -0.25,
                -1.25
            ],
            "type" : "VEC3"
        },
        {
            "bufferView" : 38,
            "componentType" : 5126,
            "count" : 2304,
            "type" : "VEC3"
        },
        {
            "bufferView" : 39,
            "componentType" : 5126,
            "count" : 2304,
            "type" : "VEC2"
        },
        {
            "bufferView" : 40,
            "componentType" : 5123,
            "count" : 3456,
            "type" : "SCALAR"
        }
    ],
    "bufferViews" : [
        {
            "buffer" : 0,
            "byteLength" : 28416,
            "byteOffset" : 0
        },
        {
            "buffer" : 0,
            "byteLength" : 28416,
            "byteOffset" : 28416
        },
        {
            "buffer" : 0,
            "byteLength" : 18944,
            "byteOffset" : 56832
        },
        {
            "buffer" : 0,
            "byteLength" : 6912,
            "byteOffset" : 75776
        },
        {
            "buffer" : 0,
            "byteLength" : 1536,
            "byteOffset" : 82688
        },
        {
            "buffer" : 0,
            "byteLength" : 1536,
            "byteOffset" : 84224
        },
        {
            "buffer" : 0,
            "byteLength" : 1024,
            "byteOffset" : 85760
        },
        {
            "buffer" : 0,
            "byteLength" : 384,
            "byteOffset" : 86784
        },
        {
            "buffer" : 0,
            "byteLength" : 6708,
            "byteOffset" : 87168
        },
        {
            "buffer" : 0,
            "byteLength" : 6708,
            "byteOffset" : 93876
        },
        {
            "buffer" : 0,
            "byteLength" : 4472,
            "byteOffset" : 100584
        },
        {
            "buffer" : 0,
            "byteLength" : 5760,
            "byteOffset" : 105056
        },
        {
            "buffer" : 0,
            "byteLength" : 23808,
            "byteOffset" : 110816
        },
        {
            "buffer" : 0,
            "byteLength" : 23808,
            "byteOffset" : 134624
        },
        {
            "buffer" : 0,
            "byteLength" : 15872,
            "byteOffset" : 158432
        },
        {
            "buffer" : 0,
            "byteLength" : 5760,
            "byteOffset" : 174304
        },
        {
            "buffer" : 0,
            "byteLength" : 23808,
            "byteOffset" : 180064
        },
        {
            "buffer" : 0,
            "byteLength" : 23808,
            "byteOffset" : 203872
        },
        {
            "buffer" : 0,
            "byteLength" : 15872,
            "byteOffset" : 227680
        },
        {
            "buffer" : 0,
            "byteLength" : 23808,
            "byteOffset" : 243552
        },
        {
            "buffer" : 0,
            "byteLength" : 23808,
            "byteOffset" : 267360
        },
        {
            "buffer" : 0,
            "byteLength" : 15872,
            "byteOffset" : 291168
        },
        {
            "buffer" : 0,
            "byteLength" : 23808,
            "byteOffset" : 307040
        },
        {
            "buffer" : 0,
            "byteLength" : 23808,
            "byteOffset" : 330848
        },
        {
            "buffer" : 0,
            "byteLength" : 15872,
            "byteOffset" : 354656
        },
        {
            "buffer" : 0,
            "byteLength" : 23808,
            "byteOffset" : 370528
        },
        {
            "buffer" : 0,
            "byteLength" : 23808,
            "byteOffset" : 394336
        },
        {
            "buffer" : 0,
            "byteLength" : 15872,
            "byteOffset" : 418144
        },
        {
            "buffer" : 0,
            "byteLength" : 23808,
            "byteOffset" : 434016
        },
        {
            "buffer" : 0,
            "byteLength" : 23808,
            "byteOffset" : 457824
        },
        {
            "buffer" : 0,
            "byteLength" : 15872,
            "byteOffset" : 481632
        },
        {
            "buffer" : 0,
            "byteLength" : 23808,
            "byteOffset" : 497504
        },
        {
            "buffer" : 0,
            "byteLength" : 23808,
            "byteOffset" : 521312
        },
        {
            "buffer" : 0,
            "byteLength" : 15872,
            "byteOffset" : 545120
        },
        {
            "buffer" : 0,
            "byteLength" : 23808,
            "byteOffset" : 560992
        },
        {
            "buffer" : 0,
            "byteLength" : 23808,
            "byteOffset" : 584800
        },
        {
            "buffer" : 0,
            "byteLength" : 15872,
            "byteOffset" : 608608
        },
        {
            "buffer" : 0,
            "byteLength" : 27648,
            "byteOffset" : 624480
        },
        {
            "buffer" : 0,
            "byteLength" : 27648,
            "byteOffset" : 652128
        },
        {
            "buffer" : 0,
            "byteLength" : 18432,
            "byteOffset" : 679776
        },
        {
            "buffer" : 0,
            "byteLength" : 6912,
            "byteOffset" : 698208
        }
    ],
    "buffers" : [
        {
            "byteLength" : 705120,
            "uri" : "ufo9.bin"
        }
    ]
}
